<svg width="1233" height="1233" viewBox="0 0 1233 1233" fill="none" xmlns="http://www.w3.org/2000/svg">
<path d="M151.572 0H0V151.572V463.576H151.572V151.572H463.576V0H151.572Z" fill="#5BA1D6"/>
<path d="M151.572 1233H0V1081.43V769.424H151.572V1081.43H463.576V1233H151.572Z" fill="#5BA1D6"/>
<path d="M1233 1081.43V1233H1081.43H769.424V1081.43H1081.43V769.424H1233V1081.43Z" fill="#5BA1D6"/>
<path d="M1233 0V151.572V463.576H1081.43V151.572H769.424V3.39017e-05L1081.43 6.62543e-06L1233 0Z" fill="#5BA1D6"/>
<path d="M454.645 302.768H303.072V378.553H454.645V302.768Z" fill="#5BA1D6"/>
<path d="M454.141 740.701H302.568V816.486H454.141V740.701Z" fill="#5BA1D6"/>
<path d="M303.072 340.66L303.072 492.233L378.857 492.233L378.857 340.66L303.072 340.66Z" fill="#5BA1D6"/>
<path d="M302.568 778.593L302.568 930.166L378.353 930.166L378.353 778.593L302.568 778.593Z" fill="#5BA1D6"/>
<path d="M340.965 492.231L492.537 492.231L492.537 416.446L340.965 416.446L340.965 492.231Z" fill="#5BA1D6"/>
<path d="M340.461 930.165L492.033 930.165L492.033 854.38L340.461 854.38L340.461 930.165Z" fill="#5BA1D6"/>
<path d="M492.535 454.34L492.535 302.768L416.75 302.768L416.75 454.34L492.535 454.34Z" fill="#5BA1D6"/>
<path d="M492.031 892.273L492.031 740.701L416.246 740.701L416.246 892.273L492.031 892.273Z" fill="#5BA1D6"/>
<path d="M891.961 303.115H740.389V378.9H891.961V303.115Z" fill="#5BA1D6"/>
<path d="M740.389 341.008L740.389 492.58L816.174 492.58L816.174 341.008L740.389 341.008Z" fill="#5BA1D6"/>
<path d="M778.281 492.579L929.854 492.579L929.854 416.794L778.281 416.794L778.281 492.579Z" fill="#5BA1D6"/>
<path d="M929.852 454.687L929.852 303.115L854.067 303.115L854.067 454.687L929.852 454.687Z" fill="#5BA1D6"/>
<path d="M929.852 740.7H854.602V816.485H929.852V740.7Z" fill="#5BA1D6"/>
<path d="M740.387 740.699L740.387 816.485L816.172 816.485L816.172 740.699L740.387 740.699Z" fill="#5BA1D6"/>
<path d="M816.172 930.163L929.852 930.163L929.852 854.378L816.172 854.378L816.172 930.163Z" fill="#5BA1D6"/>
<path d="M816.172 930.166L816.172 854.381L740.387 854.381L740.387 930.166L816.172 930.166Z" fill="#5BA1D6"/>
</svg>
