<svg width="1152" height="1152" viewBox="0 0 1152 1152" fill="none" xmlns="http://www.w3.org/2000/svg">
<g clip-path="url(#clip0_0_3)">
<path fill-rule="evenodd" clip-rule="evenodd" d="M660.82 754.938C867.249 657.087 996.617 497.649 949.772 398.824C902.927 299.999 697.608 299.211 491.18 397.062C284.751 494.913 155.383 654.351 202.228 753.176C249.073 852.001 454.392 852.789 660.82 754.938ZM690.964 818.529C970.754 685.903 1146.1 469.804 1082.6 335.859C1019.11 201.914 740.826 200.844 461.036 333.471C181.246 466.097 5.90292 682.196 69.3958 816.141C132.889 950.086 411.174 951.156 690.964 818.529Z" fill="url(#paint0_linear_0_3)"/>
<rect x="341.146" y="398.753" width="62" height="394.511" fill="#212529"/>
<rect x="839.154" y="534.008" width="62" height="259.255" fill="#212529"/>
<path d="M473.254 534H614V596H473.254V630.958L473.256 633.141C473.326 641.345 474.449 649.675 476.671 657.969C490.806 710.723 545.03 742.029 597.784 727.894L613.831 787.781C528.002 810.779 439.781 759.844 416.783 674.016C413.099 660.266 411.312 646.454 411.262 632.859L411.254 398.74H473.254V534Z" fill="#212529"/>
<circle cx="760.17" cy="664.615" r="99.607" stroke="#212529" stroke-width="62"/>
</g>
<defs>
<linearGradient id="paint0_linear_0_3" x1="513.852" y1="532.777" x2="749.87" y2="701.361" gradientUnits="userSpaceOnUse">
<stop stop-color="#5DFDCB"/>
<stop offset="1" stop-color="white" stop-opacity="0"/>
</linearGradient>
<clipPath id="clip0_0_3">
<rect width="1152" height="1152" rx="159" fill="white"/>
</clipPath>
</defs>
</svg>
